PathFileType  4	(X/Y/Z) C:\Users\antoi\Documents\MyRepositories\mobilecap\ResultsAnalysis
DataRate	CameraRate	NumFrames	NumMarkers	Units	OrigDataRate	OrigDataStartFrame	OrigNumFrames
100.0	100.0	4	51	mm	100.0	66	131
Frame#	Time	r_knee			r_shank_antsup			r_ankle			r_calc			r_5meta			r_toe			L_knee			L_shank_antsup			L_ankle			L_calc			L_5meta			L_toe			r_sh2			r_sh3			r_sh4			L_sh2			L_sh3			r_thigh1			r_thigh2			r_thigh3			r_thigh4			r_thigh5			L_thigh1			L_thigh2			L_thigh3			L_thigh4			r.ASIS			r.PSIS			L.ASIS			L.PSIS			C7			R_Shoulder			L_Shoulder			R_Sternum			L_Sternum			R_humerus			R_elbow_med			R_elbow_lat			R_forearm			R_wrist_radius			R_wrist_ulna			L_humerus			L_elbow_med			L_elbow_lat			L_forearm			L_wrist_radius			L_wrist_ulna			R_HJC			L_HJC			R_HJC_reg			L_HJC_reg			
		X1	Y1	Z1	X2	Y2	Z2	X3	Y3	Z3	X4	Y4	Z4	X5	Y5	Z5	X6	Y6	Z6	X7	Y7	Z7	X8	Y8	Z8	X9	Y9	Z9	X10	Y10	Z10	X11	Y11	Z11	X12	Y12	Z12	X13	Y13	Z13	X14	Y14	Z14	X15	Y15	Z15	X16	Y16	Z16	X17	Y17	Z17	X18	Y18	Z18	X19	Y19	Z19	X20	Y20	Z20	X21	Y21	Z21	X22	Y22	Z22	X23	Y23	Z23	X24	Y24	Z24	X25	Y25	Z25	X26	Y26	Z26	X27	Y27	Z27	X28	Y28	Z28	X29	Y29	Z29	X30	Y30	Z30	X31	Y31	Z31	X32	Y32	Z32	X33	Y33	Z33	X34	Y34	Z34	X35	Y35	Z35	X36	Y36	Z36	X37	Y37	Z37	X38	Y38	Z38	X39	Y39	Z39	X40	Y40	Z40	X41	Y41	Z41	X42	Y42	Z42	X43	Y43	Z43	X44	Y44	Z44	X45	Y45	Z45	X46	Y46	Z46	X47	Y47	Z47	X48	Y48	Z48	X49	Y49	Z49	X50	Y50	Z50	X51	Y51	Z51	

66	0.65000000	563.10523	465.08562	-100.20910	530.34838	364.27618	-109.63201	256.23290	187.38577	-140.81022	195.16867	211.08092	-193.56622	289.20454	59.70814	-107.38532	337.87291	61.68714	-158.41706	818.42314	498.81865	-347.08918	869.55927	421.54717	-323.95353	834.59610	95.87828	-317.90452	759.65743	50.60621	-273.53325	941.04143	40.76405	-350.36216	985.04964	68.25908	-291.48528	447.83704	287.29100	-119.07738	482.98442	409.91047	-73.01614	394.37429	337.89292	-79.45923	794.80443	424.65084	-376.85221	802.27982	303.71881	-378.84874	666.96021	733.37243	-64.83349	660.31299	623.34176	-81.31795	601.24678	599.23387	-58.18730	554.16191	734.57604	-49.51167	552.43840	622.51522	-76.24339	796.59263	751.44044	-375.06595	851.08684	627.02555	-338.96390	708.33821	701.27713	-418.53473	758.36110	583.55363	-378.77991	720.21041	932.86486	-96.93842	521.56864	966.99696	-199.24737	744.23705	946.89020	-349.87154	533.31322	964.70678	-293.19321	547.04654	1426.87282	-242.98922	611.18753	1403.92830	-76.89381	626.17439	1396.67306	-395.30109	677.73480	1360.87837	-215.03122	676.83139	1361.45477	-261.24324	657.44819	1281.27732	-17.55043	613.06571	1066.22815	-45.80325	615.82360	1081.54018	19.86203	694.11992	1044.15225	41.39812	812.43501	922.29285	12.72866	780.86303	906.28946	49.32717	631.75404	1255.81377	-460.75314	533.54014	1069.01281	-412.91196	536.59237	1085.37094	-491.48613	563.47072	1021.70494	-520.77107	546.34345	842.22838	-529.46815	509.81329	863.79296	-557.86891	642.30247	845.58057	-135.81109	663.44081	855.01663	-323.92961	647.58315	866.25199	-140.20062	668.41832	862.17059	-306.78161	
67	0.66000000	590.05950	462.80249	-98.84699	554.81711	363.08672	-108.42707	275.68642	196.79331	-138.91481	217.81435	226.90887	-191.63643	295.94644	66.07203	-107.27007	344.81781	63.57348	-157.84107	827.13382	499.36703	-348.05693	876.94635	420.89965	-324.11997	834.77456	95.70680	-317.99295	759.67070	50.71326	-273.69544	941.06474	40.59706	-350.53254	985.20760	67.76277	-291.58162	469.66293	288.88099	-117.67430	509.20414	410.24841	-71.75256	418.15414	341.29204	-77.98640	802.90682	425.27133	-378.11834	808.19739	304.31773	-379.87580	685.51339	734.04014	-65.98559	682.42512	623.63729	-81.43323	623.59824	597.87563	-58.18231	572.61616	731.94383	-51.11812	574.51719	619.52949	-76.42225	808.88165	752.65740	-375.78300	861.58052	627.46669	-339.78824	720.28659	703.76843	-419.98385	768.56429	585.24106	-380.37186	734.53198	934.16117	-99.70906	535.50548	967.66573	-198.46133	757.38200	949.72589	-351.93104	546.59855	966.85029	-292.89093	560.16532	1428.53826	-244.51372	624.21018	1405.85551	-78.38636	639.38392	1398.32737	-396.64958	690.84378	1362.84978	-216.47957	689.85210	1363.38249	-262.68161	669.46997	1282.71594	-18.78946	622.82087	1068.39112	-48.48410	625.46845	1083.23917	17.37297	702.74334	1044.12447	39.30076	818.29233	919.44116	11.05396	786.00723	904.08346	47.53502	646.90102	1257.42763	-461.70072	551.30829	1069.30253	-413.84200	554.81257	1085.32219	-492.45195	583.31556	1021.93933	-521.06664	570.14703	842.09290	-528.85200	533.49473	862.69330	-557.75689	657.28511	846.62100	-137.68173	676.63615	857.55370	-325.91118	662.80228	866.49968	-143.29550	682.34440	865.03962	-309.58870	
68	0.67000000	617.77857	460.75367	-97.26083	580.50147	362.22399	-107.35735	297.11139	205.87039	-137.12456	242.91565	242.03090	-189.91116	304.59715	73.21307	-107.14351	353.51797	66.16063	-157.17423	834.89609	499.60324	-349.21242	883.56748	420.09083	-324.64943	834.83587	95.51953	-318.11921	759.65440	50.80911	-273.86068	941.06502	40.49439	-350.67317	985.27429	67.44537	-291.67684	492.91087	290.62862	-116.43861	536.50304	410.56680	-70.41923	443.27415	344.51182	-76.43968	810.03732	425.57753	-379.37573	813.38675	304.72661	-380.81980	704.03419	734.96970	-67.03002	704.72410	624.33211	-81.45705	646.25326	596.86885	-57.89122	591.07730	729.32676	-52.70077	596.79755	616.66056	-76.37484	820.60763	753.49849	-376.68999	871.24275	627.43416	-340.85909	731.49611	706.02567	-421.45927	777.83575	586.64267	-382.01758	748.34265	935.55638	-102.40608	549.12170	968.33376	-197.75092	770.21930	952.54033	-353.97752	559.62966	969.06652	-292.60227	573.15908	1430.22077	-245.97389	636.92850	1407.84749	-79.79061	652.55484	1400.08909	-397.86457	703.81677	1364.84559	-217.77724	702.79082	1365.35310	-263.96431	681.31924	1284.26221	-20.00036	632.53351	1070.70436	-51.23823	635.06700	1085.06268	14.85384	711.21657	1044.16612	37.20239	823.72635	916.51574	9.44099	790.73070	901.91398	45.77909	662.10659	1259.19446	-462.53971	569.10662	1069.79833	-414.74562	573.25095	1085.42708	-493.36210	603.46586	1022.38768	-521.26020	594.51532	842.21965	-528.05382	557.88112	861.83573	-557.49630	671.84113	847.73115	-139.52863	689.50980	860.10212	-327.84011	677.59238	866.69464	-146.48379	695.98504	867.95252	-312.47648	
69	0.68000000	645.87040	459.18236	-95.51726	607.10765	361.82167	-106.41870	320.17147	214.36309	-135.53692	269.76183	255.76501	-188.53320	315.77439	80.76693	-106.90452	364.60088	69.42684	-156.35171	841.79271	499.52733	-350.53285	889.40431	419.08119	-325.65644	834.83805	95.32362	-318.27594	759.63400	50.88309	-273.99794	941.05751	40.40447	-350.80345	985.29666	67.21720	-291.77099	517.35609	292.56513	-115.37696	564.49977	410.99150	-69.04925	469.41116	347.56087	-74.87788	816.08361	425.56588	-380.61187	817.67644	304.90385	-381.67050	722.37726	736.24277	-67.95780	726.93929	625.53220	-81.37483	669.01696	596.36458	-57.36545	609.43376	726.92137	-54.20952	619.05808	614.17448	-76.15136	831.77154	753.95932	-377.81827	880.15184	626.96389	-342.19164	741.96359	707.99100	-422.93553	786.24789	587.74366	-383.69424	761.67071	937.03042	-104.87518	562.41858	969.00622	-197.18006	782.75641	955.18005	-355.91324	572.41738	971.31766	-292.37724	586.03124	1431.89015	-247.35518	649.33332	1409.85116	-81.07640	665.69688	1401.90462	-398.94662	716.66443	1366.81963	-218.90411	715.66447	1367.32487	-265.07621	692.97520	1285.85673	-21.14312	642.25596	1073.06524	-54.04171	644.63040	1086.94606	12.33253	719.55676	1044.23326	35.12758	828.78018	913.52780	7.89577	795.11144	899.78312	44.06906	677.37918	1261.05545	-463.25330	586.88949	1070.45116	-415.63592	591.88346	1085.64921	-494.22640	623.87409	1023.01870	-521.35218	619.42140	842.61603	-527.08081	582.94868	861.23716	-557.08098	685.90913	848.90812	-141.24735	702.07958	862.54700	-329.61620	691.93778	866.79154	-149.60460	709.34221	870.79578	-315.31137	
